<?xml version="1.0" encoding="UTF-8"?>
<svg version="1.1" xmlns="http://www.w3.org/2000/svg" width="50" height="50">
<path d="M0 0 C0.70125 0.00515625 1.4025 0.0103125 2.125 0.015625 C2.82625 0.01046875 3.5275 0.0053125 4.25 0 C6.125 0.265625 6.125 0.265625 8.125 2.265625 C8.228125 3.52375 8.33125 4.781875 8.4375 6.078125 C8.80157053 9.34879138 9.23065438 10.42740827 11.125 13.328125 C14.93751778 15.79037607 16.99177913 15.41775328 21.33203125 14.66015625 C21.92371094 14.52996094 22.51539062 14.39976563 23.125 14.265625 C22.96386719 13.69070313 22.80273438 13.11578125 22.63671875 12.5234375 C21.83978649 9.00720205 21.95047924 5.87238734 22.125 2.265625 C24.125 0.265625 24.125 0.265625 26 0 C26.70125 0.00515625 27.4025 0.0103125 28.125 0.015625 C28.82625 0.01046875 29.5275 0.0053125 30.25 0 C32.125 0.265625 32.125 0.265625 34.125 2.265625 C34.390625 4.140625 34.390625 4.140625 34.375 6.265625 C34.38273437 7.3175 34.38273437 7.3175 34.390625 8.390625 C34.125 10.265625 34.125 10.265625 32.125 12.265625 C29.5 12.390625 29.5 12.390625 27.125 12.265625 C27.125 13.585625 27.125 14.905625 27.125 16.265625 C27.785 16.884375 28.445 17.503125 29.125 18.140625 C31.125 20.265625 31.125 20.265625 31.375 23.515625 C31.2925 24.423125 31.21 25.330625 31.125 26.265625 C31.785 25.770625 32.445 25.275625 33.125 24.765625 C37.15916662 22.74854169 39.6421875 22.89818135 44.125 23.265625 C46.125 25.265625 46.125 25.265625 46.390625 27.140625 C46.38546875 27.841875 46.3803125 28.543125 46.375 29.265625 C46.38273437 30.3175 46.38273437 30.3175 46.390625 31.390625 C46.125 33.265625 46.125 33.265625 44.125 35.265625 C42.25 35.53125 42.25 35.53125 40.125 35.515625 C39.42375 35.52078125 38.7225 35.5259375 38 35.53125 C36.125 35.265625 36.125 35.265625 34.125 33.265625 C34.125 31.945625 34.125 30.625625 34.125 29.265625 C30.96384224 30.63546003 30.1322908 31.2546888 28.125 34.265625 C28.43340599 36.41837448 28.43340599 36.41837448 29.125 38.265625 C30.07375 38.224375 31.0225 38.183125 32 38.140625 C35.125 38.265625 35.125 38.265625 37.125 40.265625 C37.390625 42.140625 37.390625 42.140625 37.375 44.265625 C37.38273437 45.3175 37.38273437 45.3175 37.390625 46.390625 C37.125 48.265625 37.125 48.265625 35.125 50.265625 C33.25 50.53125 33.25 50.53125 31.125 50.515625 C30.42375 50.52078125 29.7225 50.5259375 29 50.53125 C27.125 50.265625 27.125 50.265625 25.125 48.265625 C24.9296875 45.2265625 24.9296875 45.2265625 25 41.640625 C25.01804687 40.45210937 25.03609375 39.26359375 25.0546875 38.0390625 C25.07789062 37.12382813 25.10109375 36.20859375 25.125 35.265625 C24.52171875 35.265625 23.9184375 35.265625 23.296875 35.265625 C19.57291667 35.265625 15.84895833 35.265625 12.125 35.265625 C11.135 35.925625 10.145 36.585625 9.125 37.265625 C8.75099214 39.592785 8.41735267 41.92680362 8.125 44.265625 C6.125 46.265625 6.125 46.265625 4.25 46.53125 C3.54875 46.52609375 2.8475 46.5209375 2.125 46.515625 C1.42375 46.52078125 0.7225 46.5259375 0 46.53125 C-1.875 46.265625 -1.875 46.265625 -3.875 44.265625 C-4.140625 42.390625 -4.140625 42.390625 -4.125 40.265625 C-4.13015625 39.564375 -4.1353125 38.863125 -4.140625 38.140625 C-3.875 36.265625 -3.875 36.265625 -1.875 34.265625 C0.68864108 33.88454322 3.22585553 33.75976131 5.8125 33.609375 C8.31575583 33.47183821 8.31575583 33.47183821 10.125 31.265625 C11.30866521 25.51975351 12.25848857 20.16696067 9.1875 15.015625 C5.31078077 12.80035687 2.55589509 12.62881312 -1.875 12.265625 C-3.875 10.265625 -3.875 10.265625 -4.140625 8.390625 C-4.13546875 7.689375 -4.1303125 6.988125 -4.125 6.265625 C-4.13015625 5.564375 -4.1353125 4.863125 -4.140625 4.140625 C-3.75603481 1.4258707 -2.7147543 0.38459019 0 0 Z " fill="#000000" transform="translate(3.875,-0.265625)"/>
</svg>
